<svg id="svg" version="1.1" xmlns="http://www.w3.org/2000/svg" width="400" height="400" viewBox="0, 0, 400,400"><g id="svgg"><path id="path0" d="M157.031 80.664 L 157.031 103.516 127.832 103.555 C 111.772 103.577,95.820 103.661,92.383 103.743 C 88.945 103.824,78.882 103.894,70.020 103.898 L 53.906 103.906 53.906 119.727 L 53.906 135.547 42.773 135.547 L 31.641 135.547 31.641 151.563 L 31.641 167.578 19.531 167.578 L 7.422 167.578 7.422 199.023 L 7.422 230.469 19.527 230.469 L 31.632 230.469 31.734 247.168 L 31.836 263.867 42.871 263.971 L 53.906 264.075 53.906 279.694 L 53.906 295.313 65.625 295.313 L 77.344 295.313 77.344 255.859 L 77.344 216.406 100.000 216.406 L 122.656 216.406 122.656 199.414 L 122.656 182.422 99.805 182.422 L 76.953 182.422 76.953 159.180 L 76.953 135.938 116.990 135.938 L 157.027 135.938 157.127 166.699 L 157.227 197.461 165.430 197.461 L 173.633 197.461 173.676 190.625 C 173.700 186.865,173.744 183.042,173.774 182.129 L 173.828 180.469 181.241 180.469 L 188.654 180.469 188.761 173.340 L 188.867 166.211 196.574 166.280 L 204.281 166.349 204.387 158.467 L 204.492 150.586 212.402 150.480 L 220.313 150.374 220.313 142.375 L 220.313 134.375 228.539 134.375 L 236.765 134.375 236.552 128.809 C 236.435 125.747,236.337 121.888,236.334 120.233 L 236.328 117.224 231.152 117.272 C 228.306 117.298,224.702 117.290,223.145 117.254 L 220.313 117.188 220.313 110.156 L 220.313 103.125 212.500 103.125 L 204.688 103.125 204.688 95.125 L 204.688 87.126 196.973 87.020 L 189.258 86.914 189.152 79.004 L 189.046 71.094 181.633 71.094 L 174.219 71.094 174.174 69.629 C 174.149 68.823,174.118 65.835,174.106 62.988 L 174.083 57.813 165.557 57.813 L 157.031 57.813 157.031 80.664 M319.301 104.354 C 319.148 104.601,319.094 122.223,319.180 143.514 L 319.336 182.227 296.387 182.327 L 273.438 182.428 273.438 199.417 L 273.438 216.406 290.723 216.483 C 300.229 216.526,310.513 216.570,313.574 216.581 L 319.141 216.602 319.141 239.746 L 319.141 262.891 313.379 262.907 C 310.210 262.916,291.930 263.022,272.756 263.143 L 237.895 263.363 237.795 231.388 L 237.695 199.414 228.906 199.414 L 220.117 199.414 220.012 207.902 L 219.907 216.390 212.199 216.496 L 204.492 216.602 204.387 224.467 L 204.281 232.332 196.476 232.617 L 188.672 232.903 188.672 240.475 L 188.672 248.047 181.063 248.047 L 173.455 248.047 173.348 255.371 L 173.242 262.695 165.332 262.801 L 157.422 262.907 157.422 271.102 L 157.422 279.297 165.430 279.297 L 173.438 279.297 173.438 287.296 L 173.438 295.296 180.957 295.402 L 188.477 295.508 188.582 303.809 L 188.687 312.109 196.492 312.109 L 204.297 312.109 204.297 320.066 C 204.297 327.385,204.352 328.023,204.980 328.021 C 205.356 328.019,208.960 328.042,212.988 328.071 L 220.313 328.125 220.313 335.938 L 220.313 343.750 228.906 343.750 L 237.500 343.750 237.500 319.478 L 237.500 295.207 289.941 295.357 L 342.383 295.508 342.485 279.590 C 342.580 264.797,342.635 263.667,343.266 263.608 C 343.640 263.574,348.604 263.530,354.297 263.511 L 364.648 263.477 364.648 247.070 L 364.648 230.664 376.270 230.561 L 387.891 230.457 387.891 198.822 L 387.891 167.188 376.172 167.188 L 364.453 167.188 364.453 151.563 L 364.453 135.938 353.320 135.938 L 342.188 135.938 342.188 119.922 L 342.188 103.906 330.882 103.906 C 322.803 103.906,319.498 104.034,319.301 104.354 M393.750 396.875" stroke="none" fill="#ffffff" fill-rule="evenodd"></path></g></svg>
